<svg width="20" height="21" viewBox="0 0 20 21" fill="none" xmlns="http://www.w3.org/2000/svg">
<g clip-path="url(#clip0_102_128)">
<path d="M17.1999 4.64983L16.8745 5.56479C16.8606 5.60397 16.833 5.63503 16.7982 5.65069L15.9853 6.01694C15.8704 6.0687 15.8704 6.25167 15.9853 6.30338L16.7982 6.66964C16.833 6.6853 16.8606 6.71635 16.8745 6.75553L17.1999 7.67049C17.2459 7.79975 17.4084 7.79975 17.4544 7.67049L17.7798 6.75553C17.7937 6.71635 17.8213 6.6853 17.8561 6.66964L18.669 6.30338C18.7838 6.25163 18.7838 6.06866 18.669 6.01694L17.8561 5.65069C17.8213 5.63503 17.7937 5.60397 17.7798 5.56479L17.4544 4.64983C17.4084 4.52057 17.2459 4.52057 17.1999 4.64983V4.64983Z" fill="#121212"/>
<path d="M13.1598 0.818658L12.9184 1.49733C12.9081 1.52639 12.8877 1.5494 12.8618 1.56104L12.2588 1.83272C12.1736 1.87112 12.1736 2.00682 12.2588 2.04522L12.8618 2.3169C12.8877 2.32854 12.9081 2.35155 12.9184 2.38061L13.1598 3.05932C13.1939 3.15522 13.3145 3.15522 13.3486 3.05932L13.59 2.38061C13.6003 2.35155 13.6208 2.32854 13.6466 2.3169L14.2496 2.04522C14.3348 2.00682 14.3348 1.87112 14.2496 1.83272L13.6466 1.56104C13.6208 1.5494 13.6003 1.52639 13.59 1.49733L13.3486 0.818658C13.3145 0.72276 13.1939 0.72276 13.1598 0.818658V0.818658Z" fill="#121212"/>
<path d="M-0.745488 4.07164C-0.836526 3.68983 -0.600809 3.30651 -0.219 3.21548C0.162808 3.12444 0.546126 3.36016 0.637164 3.74196C0.728201 4.12377 0.492485 4.50709 0.110676 4.59813C-0.271132 4.68916 -0.65445 4.45345 -0.745488 4.07164Z" fill="#121212"/>
<path d="M16.5981 3.00701C16.4288 3.00701 16.2916 2.86979 16.2916 2.70053C16.2916 2.53126 16.4288 2.39404 16.5981 2.39404C16.7673 2.39404 16.9045 2.53126 16.9045 2.70053C16.9045 2.86979 16.7673 3.00701 16.5981 3.00701Z" fill="#121212"/>
<path d="M1.47392 6.75954C1.83825 5.61736 2.48356 4.62724 3.34431 3.86443L2.93642 3.15794C2.71903 2.78146 2.6613 2.3429 2.77384 1.92298C2.88634 1.50306 3.15563 1.15212 3.53212 0.934779C4.30931 0.486068 5.30657 0.753334 5.75528 1.53048L6.25427 2.39474C7.41825 2.1463 8.63876 2.22857 9.80548 2.6481C11.4814 3.25076 12.8458 4.47712 13.6474 6.10138C13.6506 6.1079 13.6578 6.12294 13.6688 6.14579C13.9852 6.80583 14.6297 8.09927 15.3901 9.3463C16.049 10.4268 16.5529 11.0733 16.926 11.4595C17.5413 11.2928 18.2104 11.5785 18.5029 12.1714L18.5184 12.2027C18.6793 12.5289 18.7036 12.8982 18.5868 13.2426C18.47 13.5871 18.226 13.8654 17.8999 14.0264L11.7343 17.069C11.905 17.4083 12.0014 17.7911 12.0014 18.1961C12.0014 19.5861 10.8706 20.717 9.48056 20.717C8.48603 20.717 7.62466 20.1378 7.21478 19.2992L5.58044 20.1057C5.38724 20.2011 5.18216 20.2462 4.98001 20.2462C4.47767 20.2462 3.99368 19.9674 3.75681 19.4873L3.74122 19.4558C3.46919 18.9045 3.6061 18.2563 4.03411 17.857C3.95587 17.287 3.73825 16.4083 3.23208 15.0602C2.61122 13.4068 1.88474 11.924 1.87751 11.9094C1.07602 10.2852 0.932665 8.45626 1.47392 6.75954V6.75954ZM5.06915 1.92654C4.95759 1.73333 4.77751 1.59513 4.562 1.5374C4.49005 1.5181 4.417 1.50857 4.34446 1.50857C4.19974 1.50857 4.05688 1.54654 3.92821 1.62083C3.73501 1.7324 3.59681 1.91247 3.53907 2.12798C3.48134 2.34349 3.51099 2.56857 3.62251 2.76177L3.97521 3.37267C4.2229 3.20353 4.48372 3.05044 4.7572 2.91552C4.98954 2.80087 5.22673 2.70146 5.46755 2.61658L5.06915 1.92654ZM9.48056 19.9248C10.4337 19.9248 11.2092 19.1493 11.2092 18.1961C11.2092 17.9169 11.1424 17.6531 11.0242 17.4194L7.92563 18.9485C8.20571 19.5257 8.79704 19.9248 9.48056 19.9248V19.9248ZM4.45169 19.1051L4.46727 19.1367C4.60618 19.4182 4.94829 19.5343 5.22989 19.3953L17.5493 13.316C17.6857 13.2486 17.7877 13.1323 17.8365 12.9882C17.8854 12.8442 17.8752 12.6897 17.8078 12.5532L17.7924 12.5219C17.6534 12.2403 17.3113 12.1242 17.0297 12.2632L4.71036 18.3425C4.42884 18.4815 4.31278 18.8236 4.45169 19.1051ZM2.58798 11.5588C2.59532 11.5737 3.33895 13.0912 3.9736 14.7813C4.40704 15.9356 4.64903 16.7899 4.76841 17.4305L16.1669 11.8056C15.7651 11.3519 15.2867 10.6985 14.7137 9.7588C13.9352 8.48216 13.2773 7.16177 12.9543 6.48833C12.9454 6.46966 12.9395 6.45736 12.9368 6.45197C12.2266 5.01263 11.0193 3.92646 9.53739 3.39361C8.06064 2.86255 6.48751 2.94505 5.10782 3.62595C3.72813 4.30677 2.70567 5.50513 2.22872 7.00025C1.75013 8.5006 1.87774 10.1195 2.58798 11.5588V11.5588Z" fill="#121212"/>
<path d="M11.0589 6.50206C11.1465 6.50206 11.2345 6.47323 11.3078 6.41389C11.4779 6.27628 11.5043 6.02686 11.3667 5.85679C10.9956 5.39807 10.5573 5.00214 10.064 4.67999C9.88083 4.56034 9.63528 4.6119 9.51571 4.79511C9.3961 4.97831 9.44763 5.22374 9.63083 5.34335C10.0549 5.62026 10.4317 5.96065 10.7508 6.35503C10.829 6.45179 10.9434 6.50206 11.0589 6.50206V6.50206Z" fill="#121212"/>
<path d="M8.6412 4.82813C8.80781 4.82813 8.96281 4.7222 9.01753 4.55528C9.0857 4.34739 8.97238 4.12364 8.76449 4.05548C8.61398 4.00614 8.45921 3.96286 8.30449 3.92681C8.09144 3.87712 7.87843 4.00958 7.82882 4.22267C7.77917 4.43571 7.91163 4.64868 8.12468 4.69837C8.25687 4.72919 8.38913 4.76614 8.51769 4.80829C8.55871 4.82173 8.60031 4.82813 8.6412 4.82813V4.82813Z" fill="#121212"/>
</g>
<defs>
<clipPath id="clip0_102_128">
<rect width="20" height="19.9155" fill="white" transform="matrix(-1 0 0 1 20 0.716949)"/>
</clipPath>
</defs>
</svg>
